<?xml version="1.0" ?>
<!-- Uploaded to: SVG Repo, www.svgrepo.com, Generator: SVG Repo Mixer Tools -->
<svg width="800px" height="800px" viewBox="0 0 64 64" xmlns="http://www.w3.org/2000/svg">
<defs>
<style>.cls-1{fill:#7bd1e0;}.cls-2{fill:#6dc1d5;}.cls-3{fill:#f0f4f7;}.cls-4{fill:#e0e9ee;}.cls-5{fill:#94d8e5;}.cls-6{fill:#252b48;}</style>
</defs>
<g data-name="Sofa Chair" id="Sofa_Chair-4">
<path class="cls-1" d="M49.36,30.5V24.17A10.73,10.73,0,0,0,38.61,13.42H25.39A10.73,10.73,0,0,0,14.64,24.17V42.08L21,46.41H45.65Z" id="rect82872-5-1"/>
<path class="cls-2" d="M26.43,20.62a1.81,1.81,0,1,1-1.8-1.81A1.8,1.8,0,0,1,26.43,20.62Z" id="path84472-9-7"/>
<path class="cls-2" d="M41.18,20.62a1.81,1.81,0,1,1-1.81-1.81A1.81,1.81,0,0,1,41.18,20.62Z" id="path84577-4-5"/>
<path class="cls-2" d="M26.43,28.58a1.81,1.81,0,1,1-1.8-1.8A1.8,1.8,0,0,1,26.43,28.58Z" id="path84897-9-9"/>
<path class="cls-2" d="M41.18,28.58a1.81,1.81,0,1,1-1.81-1.8A1.81,1.81,0,0,1,41.18,28.58Z" id="path84899-0-6"/>
<path class="cls-2" d="M49.36,30.5V24.17A10.73,10.73,0,0,0,38.61,13.42H34.18A10.72,10.72,0,0,1,44.92,24.17V36.28Z" id="path314235"/>
<path class="cls-3" d="M43.54,40.16a3.47,3.47,0,0,0-3.47-3.47H23.93a3.47,3.47,0,0,0-3.47,3.47L16.93,42l4.14,5,25.09-.22Z" id="path81114-1-6"/>
<path class="cls-4" d="M39.5,36.69v6.94H18.28L21.06,47l25.1-.22-2.62-6.63a3.47,3.47,0,0,0-3.47-3.47Z" id="path308145"/>
<path class="cls-5" d="M14.27,30.49A6.19,6.19,0,0,0,11.12,42v6.82a1.74,1.74,0,0,0,1.74,1.74H51.14a1.74,1.74,0,0,0,1.74-1.74V42a6.19,6.19,0,1,0-9.34-5.33v6.94H20.46V36.69A6.2,6.2,0,0,0,14.27,30.49Z" id="rect78566-1-7"/>
<path class="cls-2" d="M16.59,36.69a2.33,2.33,0,1,1-2.32-2.33A2.32,2.32,0,0,1,16.59,36.69Z" id="path86228-2"/>
<path class="cls-2" d="M52.06,36.69a2.33,2.33,0,1,1-2.33-2.33A2.32,2.32,0,0,1,52.06,36.69Z" id="path87093-9"/>
<path class="cls-1" d="M50.09,30.51a6.18,6.18,0,0,1-.45,10.37v8a1.73,1.73,0,0,1-1.74,1.74h3.24a1.74,1.74,0,0,0,1.74-1.74V42a6.19,6.19,0,0,0-2.79-11.51Z" id="path301475"/>
<path class="cls-6" d="M38.61,12.42H25.39A11.76,11.76,0,0,0,13.64,24.17v5.35a7.19,7.19,0,0,0-3.52,13v6.28a2.74,2.74,0,0,0,2.74,2.74H51.14a2.74,2.74,0,0,0,2.74-2.74V42.56a7.19,7.19,0,0,0-3.52-13V24.17A11.76,11.76,0,0,0,38.61,12.42Zm-13.22,2H38.61a9.76,9.76,0,0,1,9.75,9.75v5.46a7.19,7.19,0,0,0-5.81,6.81,4.5,4.5,0,0,0-2.48-.75H23.93a4.5,4.5,0,0,0-2.48.75,7.19,7.19,0,0,0-5.81-6.81V24.17A9.76,9.76,0,0,1,25.39,14.42ZM21.46,40.15a2.47,2.47,0,0,1,2.47-2.46H40.07a2.47,2.47,0,0,1,2.47,2.46v2.48H21.46Zm33.47-3.46a5.22,5.22,0,0,1-2.56,4.47,1,1,0,0,0-.49.86v6.82a.74.74,0,0,1-.74.74H12.86a.74.74,0,0,1-.74-.74V42a1,1,0,0,0-.49-.86,5.19,5.19,0,1,1,7.83-4.47v5.94H18.27a1,1,0,0,0,0,2H45.72a1,1,0,0,0,0-2H44.54V36.69a5.2,5.2,0,1,1,10.39,0Z"/>
<path class="cls-6" d="M24.63,23.43a2.81,2.81,0,1,0-2.81-2.81A2.81,2.81,0,0,0,24.63,23.43Zm0-3.62a.81.81,0,0,1,0,1.62.81.81,0,0,1,0-1.62Z"/>
<path class="cls-6" d="M39.37,23.43a2.81,2.81,0,1,0-2.8-2.81A2.81,2.81,0,0,0,39.37,23.43Zm0-3.62a.81.81,0,1,1-.8.81A.81.81,0,0,1,39.37,19.81Z"/>
<path class="cls-6" d="M24.63,31.39a2.81,2.81,0,1,0-2.81-2.81A2.81,2.81,0,0,0,24.63,31.39Zm0-3.61a.81.81,0,1,1-.81.8A.8.8,0,0,1,24.63,27.78Z"/>
<path class="cls-6" d="M39.37,31.39a2.81,2.81,0,1,0-2.8-2.81A2.81,2.81,0,0,0,39.37,31.39Zm0-3.61a.81.81,0,1,1-.8.8A.8.8,0,0,1,39.37,27.78Z"/>
<path class="cls-6" d="M14.27,33.36a3.33,3.33,0,1,0,3.32,3.33A3.34,3.34,0,0,0,14.27,33.36Zm0,4.65a1.33,1.33,0,1,1,1.32-1.32A1.33,1.33,0,0,1,14.27,38Z"/>
<path class="cls-6" d="M46.41,36.69a3.33,3.33,0,1,0,3.32-3.33A3.32,3.32,0,0,0,46.41,36.69Zm4.65,0a1.33,1.33,0,1,1-1.33-1.33A1.33,1.33,0,0,1,51.06,36.69Z"/>
</g>
</svg>