<?xml version="1.0" ?>
<!-- Uploaded to: SVG Repo, www.svgrepo.com, Generator: SVG Repo Mixer Tools -->
<svg width="800px" height="800px" viewBox="0 0 64 64" xmlns="http://www.w3.org/2000/svg">
<defs>
<style>.cls-1{fill:#748a95;}.cls-2{fill:#617880;}.cls-3{fill:#d0e1e8;}.cls-4{fill:#f0f4f7;}.cls-5{fill:#94d8e5;}.cls-6{fill:#7bd1e0;}.cls-7{fill:#252b48;}</style>
</defs>
<g data-name="Office Chair" id="Office_Chair">
<path class="cls-1" d="M33.35,52V46.56h7.73a2.09,2.09,0,0,1,2.12,2.13V52h2.69V48.69a4.83,4.83,0,0,0-4.81-4.82H33.35V40h-2.7v3.91H22.92a4.84,4.84,0,0,0-4.82,4.82V52h2.7V48.69a2.09,2.09,0,0,1,2.12-2.13h7.73V52Z" id="path73206-6-7"/>
<path class="cls-2" d="M34.46,36.7v3.45a1.11,1.11,0,0,1-1.11,1.11h-2.7a1.1,1.1,0,0,1-1.11-1.11V36.7L32,35.24Z" id="rect73969-2-8"/>
<path class="cls-3" d="M45.17,32.47l2.65-4.59a2,2,0,0,0-.72-2.67l-1-.6a2.27,2.27,0,0,0-.54-.22,2,2,0,0,0-2.13.93L40.12,31a1.82,1.82,0,0,0-.25.73l-1.11,2.73,2.88.19Z" id="rect89184-37-4"/>
<path class="cls-3" d="M18.83,32.47l-2.65-4.59a2,2,0,0,1,.72-2.67l1-.6a2,2,0,0,1,2.67.71L23.88,31a1.82,1.82,0,0,1,.25.73l.93,1.9-1.26.45Z" id="path94414-5-5"/>
<path class="cls-4" d="M22.89,52.56a3.44,3.44,0,1,1-3.44-3.44A3.44,3.44,0,0,1,22.89,52.56Z" id="path65364-3-0"/>
<path class="cls-4" d="M35.44,52.56A3.44,3.44,0,1,1,32,49.12,3.44,3.44,0,0,1,35.44,52.56Z" id="path65469-6-3"/>
<path class="cls-4" d="M48,52.56a3.44,3.44,0,1,1-3.44-3.44A3.44,3.44,0,0,1,48,52.56Z" id="path65471-0-6"/>
<path class="cls-2" d="M33.74,25.2v6.53l-2.05,2.09-2.06-2.09V25.2l2.06-2.09Z" id="path97430-6"/>
<path class="cls-5" d="M23.65,8h16.7a3.12,3.12,0,0,1,3.13,3.12v11a3.13,3.13,0,0,1-3.13,3.13H23.65a3.13,3.13,0,0,1-3.13-3.13v-11A3.12,3.12,0,0,1,23.65,8Z" id="rect97016-2"/>
<path class="cls-5" d="M20.23,31.73H43.77a1.7,1.7,0,0,1,1.7,1.7V35a1.69,1.69,0,0,1-1.7,1.69H20.23A1.69,1.69,0,0,1,18.53,35V33.43A1.7,1.7,0,0,1,20.23,31.73Z" id="rect74362-6-1"/>
<path class="cls-6" d="M39.77,31.73a1.7,1.7,0,0,1,1.7,1.7V35a1.69,1.69,0,0,1-1.7,1.69h4A1.69,1.69,0,0,0,45.47,35V33.43a1.7,1.7,0,0,0-1.7-1.7Z" id="path48320-0"/>
<path class="cls-6" d="M35.88,8A3.11,3.11,0,0,1,39,11.12v11a3.12,3.12,0,0,1-3.12,3.13h4.47a3.13,3.13,0,0,0,3.13-3.13v-11A3.12,3.12,0,0,0,40.35,8Z" id="path70263"/>
<path class="cls-7" d="M27.68,13.45h8.64a1,1,0,0,0,0-2H27.68a1,1,0,0,0,0,2Z"/>
<path class="cls-7" d="M25.21,17.6H38.79a1,1,0,0,0,0-2H25.21a1,1,0,0,0,0,2Z"/>
<path class="cls-7" d="M17.43,23.74l-1,.6a3,3,0,0,0-1.08,4l2.39,4.14a2.72,2.72,0,0,0-.17.91V35a2.7,2.7,0,0,0,2.69,2.69h8.32v2.45A2.11,2.11,0,0,0,29.65,42v.87H22.92a5.83,5.83,0,0,0-5.82,5.82v.12a4.44,4.44,0,1,0,4.7,0v-.12a1.09,1.09,0,0,1,1.12-1.13h6.73v1.25a4.44,4.44,0,1,0,4.7,0V47.56h6.73a1.09,1.09,0,0,1,1.12,1.13v.12a4.45,4.45,0,1,0,4.69,0v-.12a5.82,5.82,0,0,0-5.81-5.82H34.35V42a2.11,2.11,0,0,0,1.11-1.85V37.7h8.31A2.7,2.7,0,0,0,46.47,35V33.43a2.72,2.72,0,0,0-.17-.91l2.39-4.14a3,3,0,0,0-1.08-4l-1-.6a3.18,3.18,0,0,0-.83-.32,2.81,2.81,0,0,0-1.53.07,4.17,4.17,0,0,0,.27-1.42v-11A4.13,4.13,0,0,0,40.35,7H23.65a4.13,4.13,0,0,0-4.13,4.12v11a4.11,4.11,0,0,0,.27,1.41A3,3,0,0,0,17.43,23.74Zm2,31.26a2.44,2.44,0,1,1,2.44-2.44A2.44,2.44,0,0,1,19.45,55ZM32,55a2.44,2.44,0,1,1,2.44-2.44A2.44,2.44,0,0,1,32,55Zm12.55,0A2.44,2.44,0,1,1,47,52.56,2.44,2.44,0,0,1,44.55,55ZM41.08,44.87a3.8,3.8,0,0,1,3.76,3.28,2.85,2.85,0,0,0-.29,0c-.14,0-.27,0-.4,0a3.08,3.08,0,0,0-3.07-2.6H33.35a1,1,0,0,0-1,1v1.6c-.12,0-.23,0-.35,0s-.23,0-.35,0v-1.6a1,1,0,0,0-1-1H22.92a3.08,3.08,0,0,0-3.07,2.6c-.13,0-.26,0-.4,0a2.85,2.85,0,0,0-.29,0,3.8,3.8,0,0,1,3.76-3.28h7.73a1,1,0,0,0,1-1V42.26h.7v1.61a1,1,0,0,0,1,1Zm-7.62-4.72a.11.11,0,0,1-.11.11h-2.7a.11.11,0,0,1-.11-.11V37.7h2.92Zm11-5.14a.69.69,0,0,1-.7.69H20.22a.69.69,0,0,1-.69-.69V33.43a.69.69,0,0,1,.69-.7H43.77a.7.7,0,0,1,.7.7ZM22.08,25.89a4.26,4.26,0,0,0,1.57.31h5v4.53H24.85C24.63,30.26,23.63,28.58,22.08,25.89Zm10.66.31v4.53H30.63V26.2Zm7.61,0a4.11,4.11,0,0,0,1.57-.32c-1.7,3-2.5,4.27-2.77,4.85H34.74V26.2Zm5.22-.73,1,.6A1,1,0,0,1,47,27.38L44.88,31a2.58,2.58,0,0,0-1.11-.25H41.43l2.83-4.91A1,1,0,0,1,45.57,25.47Zm-24-14.35A2.13,2.13,0,0,1,23.65,9h16.7a2.13,2.13,0,0,1,2.13,2.12v11a2.13,2.13,0,0,1-2.13,2.13H23.65a2.13,2.13,0,0,1-2.13-2.13Zm-1.78,14.7,2.83,4.91H20.22a2.57,2.57,0,0,0-1.1.25L17,27.38a1,1,0,0,1,.35-1.31l1-.59A.94.94,0,0,1,19.74,25.82Z"/>
<path class="cls-7" d="M36.32,19.75H27.68a1,1,0,0,0,0,2h8.64a1,1,0,0,0,0-2Z"/>
</g>
</svg>