<?xml version="1.0" ?>
<!-- Uploaded to: SVG Repo, www.svgrepo.com, Generator: SVG Repo Mixer Tools -->
<svg width="800px" height="800px" viewBox="0 0 64 64" xmlns="http://www.w3.org/2000/svg">
<defs>
<style>.cls-1{fill:#efc89d;}.cls-2{fill:#ebb87f;}.cls-3{fill:#e5936b;}.cls-4{fill:#e17c46;}.cls-5{fill:#252b48;}</style>
</defs>
<g data-name="Chair" id="Chair-3">
<path class="cls-1" d="M24.43,44.86H39.57l1.13,2-1.13,2H24.43l-1.14-2Z" id="rect100668-5"/>
<path class="cls-2" d="M37.11,44.86v4.07h2.47l1.12-2-1.12-2Z" id="path358279"/>
<path class="cls-3" d="M20.68,36V53.72a1.88,1.88,0,1,0,3.75,0V36l-1.88-.94Z" id="path42600-2-4-5-5-7"/>
<path class="cls-3" d="M39.57,36V53.72a1.88,1.88,0,1,0,3.75,0V36l-1.87-.94Z" id="path100285-8"/>
<path class="cls-3" d="M26.43,24.83v6.72L24.55,33.4l-1.87-1.85V24.83L24.55,23Z" id="path101514-7"/>
<path class="cls-3" d="M41.32,24.83v6.72L39.45,33.4l-1.88-1.85V24.83L39.45,23Z" id="path101516-4"/>
<path class="cls-4" d="M24.55,23l-1.87,1.84v3.26h3.74V24.83Zm14.9,0-1.87,1.84v3.26h3.74V24.83Z" id="rect360247"/>
<path class="cls-1" d="M20.68,8.4H43.32a2.22,2.22,0,0,1,2.22,2.22v12a2.21,2.21,0,0,1-2.22,2.22H20.68a2.21,2.21,0,0,1-2.22-2.22v-12A2.22,2.22,0,0,1,20.68,8.4Z" id="rect101899-1"/>
<path class="cls-4" d="M22.55,35.05,20.68,36v3.48h3.74V36Zm18.9,0L39.58,36v3.48h3.74V36Z" id="rect362858"/>
<path class="cls-1" d="M20.68,31.55H43.32a2.22,2.22,0,0,1,0,4.44H20.68a2.22,2.22,0,0,1,0-4.44Z" id="rect99147-1"/>
<path class="cls-2" d="M39.32,8.4a2.22,2.22,0,0,1,2.22,2.22v12a2.21,2.21,0,0,1-2.22,2.22h4a2.21,2.21,0,0,0,2.22-2.22v-12A2.22,2.22,0,0,0,43.32,8.4Zm0,23.15a2.22,2.22,0,0,1,0,4.44h4a2.22,2.22,0,0,0,0-4.44Z" id="path356536"/>
<path class="cls-5" d="M24.55,14.73a1.25,1.25,0,0,0,1.25-1.25h0a1.25,1.25,0,0,0-1.25-1.25h0a1.25,1.25,0,0,0,0,2.5Z"/>
<path class="cls-5" d="M20.68,30.55a3.21,3.21,0,0,0-1,6.27v16.9a2.87,2.87,0,1,0,5.74,0V49.93H38.57v3.79a2.88,2.88,0,1,0,5.75,0V36.82a3.21,3.21,0,0,0-1-6.27h-1V25.83h1a3.22,3.22,0,0,0,3.22-3.22v-12A3.22,3.22,0,0,0,43.32,7.4H20.68a3.22,3.22,0,0,0-3.22,3.22v12a3.22,3.22,0,0,0,3.22,3.22h1v4.72Zm2.74,23.17a.87.87,0,0,1-.87.88.88.88,0,0,1-.87-.88V37h1.74ZM38.57,37v6.87H25.42V37ZM25.42,47.93V45.86H38.57v2.07Zm16,6.67a.89.89,0,0,1-.88-.88V37h1.75V53.72A.87.87,0,0,1,41.45,54.6Zm3.09-20.83A1.22,1.22,0,0,1,43.32,35H20.68a1.22,1.22,0,0,1,0-2.44H43.32A1.22,1.22,0,0,1,44.54,33.77Zm-8-7.94v4.72H27.42V25.83Zm3.75,4.72H38.57V25.83h1.75ZM19.46,22.61v-12A1.22,1.22,0,0,1,20.68,9.4H43.32a1.22,1.22,0,0,1,1.22,1.22v12a1.22,1.22,0,0,1-1.22,1.22H20.68A1.22,1.22,0,0,1,19.46,22.61Zm4.22,3.22h1.74v4.72H23.68Z"/>
<path class="cls-5" d="M24.55,20.39a1.25,1.25,0,0,0,1.25-1.25h0a1.25,1.25,0,0,0-1.25-1.25h0a1.25,1.25,0,1,0,0,2.5Z"/>
<path class="cls-5" d="M39.45,14.73a1.25,1.25,0,0,0,1.25-1.25h0a1.25,1.25,0,1,0-1.25,1.25Z"/>
<path class="cls-5" d="M39.45,20.39a1.25,1.25,0,0,0,1.25-1.25h0a1.25,1.25,0,1,0-1.25,1.25Z"/>
</g>
</svg>